<svg id="visual" viewBox="0 0 900 600" width="900" height="600" xmlns="http://www.w3.org/2000/svg" xmlns:xlink="http://www.w3.org/1999/xlink" version="1.1"><rect x="0" y="0" width="900" height="600" fill="#FFFFFF"></rect><g transform="translate(-8.02771459059909 1.324531278390566)"><path d="M273.7 -473.4C355.4 -426.9 422.8 -354.9 478.9 -271.8C535.1 -188.7 580.1 -94.3 585.4 3.1C590.7 100.5 556.5 201 507.2 296.1C458 391.2 393.7 481 306.7 515.1C219.7 549.2 109.8 527.7 8.6 512.9C-92.7 498 -185.3 489.8 -269.2 453.8C-353.1 417.8 -428.1 354.2 -476.6 273.9C-525.1 193.7 -547.1 96.8 -560.6 -7.8C-574.2 -112.5 -579.4 -225 -529.1 -302.2C-478.9 -379.4 -373.2 -421.4 -275.8 -458.8C-178.3 -496.2 -89.2 -529.1 3.4 -535C96 -540.9 192 -519.9 273.7 -473.4" fill="#395B64"></path></g></svg>