<svg id="visual" viewBox="0 0 960 540" width="960" height="540" xmlns="http://www.w3.org/2000/svg" xmlns:xlink="http://www.w3.org/1999/xlink" version="1.1"><rect x="0" y="0" width="960" height="540" fill="#FFFFFF"></rect><path d="M199 0L193.7 12.8C188.3 25.7 177.7 51.3 174.5 77C171.3 102.7 175.7 128.3 190 154C204.3 179.7 228.7 205.3 232.7 231.2C236.7 257 220.3 283 248.7 308.8C277 334.7 350 360.3 386.2 386C422.3 411.7 421.7 437.3 410.2 463C398.7 488.7 376.3 514.3 365.2 527.2L354 540L0 540L0 527.2C0 514.3 0 488.7 0 463C0 437.3 0 411.7 0 386C0 360.3 0 334.7 0 308.8C0 283 0 257 0 231.2C0 205.3 0 179.7 0 154C0 128.3 0 102.7 0 77C0 51.3 0 25.7 0 12.8L0 0Z" fill="#395B64" stroke-linecap="round" stroke-linejoin="miter"></path></svg>