<svg id="visual" viewBox="0 0 1920 1080" width="1920" height="1080" xmlns="http://www.w3.org/2000/svg" xmlns:xlink="http://www.w3.org/1999/xlink" version="1.1"><rect x="0" y="0" width="1920" height="1080" fill="#ffffff"></rect><defs><linearGradient id="grad1_0" x1="43.8%" y1="0%" x2="100%" y2="100%"><stop offset="14.444444444444446%" stop-color="#ffffff" stop-opacity="1"></stop><stop offset="85.55555555555554%" stop-color="#ffffff" stop-opacity="1"></stop></linearGradient></defs><defs><linearGradient id="grad2_0" x1="0%" y1="0%" x2="56.3%" y2="100%"><stop offset="14.444444444444446%" stop-color="#ffffff" stop-opacity="1"></stop><stop offset="85.55555555555554%" stop-color="#ffffff" stop-opacity="1"></stop></linearGradient></defs><g transform="translate(1920, 0)"><path d="M0 756C-132.5 736.4 -265 716.8 -378 654.7C-491 592.7 -584.6 488.2 -644.3 372C-704.1 255.8 -730 127.9 -756 0L0 0Z" fill="#395B64"></path></g><g transform="translate(0, 1080)"><path d="M0 -756C130.8 -735.1 261.7 -714.2 377.5 -653.8C493.3 -593.5 594.1 -493.6 654.7 -378C715.3 -262.4 735.6 -131.2 756 0L0 0Z" fill="#395B64"></path></g></svg>